<?xml version="1.0" encoding="UTF-8" standalone="no"?>
<svg
   xmlns:dc="http://purl.org/dc/elements/1.1/"
   xmlns:cc="http://creativecommons.org/ns#"
   xmlns:rdf="http://www.w3.org/1999/02/22-rdf-syntax-ns#"
   xmlns:svg="http://www.w3.org/2000/svg"
   xmlns="http://www.w3.org/2000/svg"
   xmlns:sodipodi="http://sodipodi.sourceforge.net/DTD/sodipodi-0.dtd"
   xmlns:inkscape="http://www.inkscape.org/namespaces/inkscape"
   width="6191mm"
   height="2041mm"
   viewBox="0 0 6191 2041"
   version="1.1"
   id="svg981"
   inkscape:version="1.0.1 (3bc2e813f5, 2020-09-07)"
   sodipodi:docname="fundoheader.svg">
  <defs
     id="defs975">
    <rect
       x="738.07721"
       y="112.49444"
       width="1144.7765"
       height="589.73785"
       id="rect4964" />
    <rect
       x="713.92578"
       y="171.96381"
       width="1193.0793"
       height="560.00317"
       id="rect4958" />
    <style
       id="style2171">.cls-1{fill:#50b89d;}.cls-2{fill:none;stroke:#fbdc8e;stroke-linecap:round;stroke-miterlimit:10;stroke-width:3px;}</style>
    <style
       id="style2274">.cls-1{fill:#8e554a;}.cls-2{fill:#b27363;}.cls-3{fill:none;stroke:#78e5e1;stroke-linecap:round;stroke-linejoin:round;stroke-width:4px;}</style>
    <style
       id="style3035">.cls-1{fill:#b37361;}</style>
    <style
       id="style3136">.cls-1{fill:#fbdc8e;}.cls-2{fill:#969696;}.cls-3{fill:#ab8de5;}.cls-4{fill:#78e5e1;}.cls-5{fill:#d8d8d8;}</style>
    <style
       id="style3371">.cls-1{fill:#1f161e;}.cls-2{fill:#fbdc8e;}.cls-3{fill:#73e5e2;}.cls-4{fill:none;stroke:#fff;stroke-linecap:round;stroke-linejoin:round;stroke-width:0.4px;}.cls-5{fill:#b37361;}</style>
    <style
       id="style4935">.cls-1{fill:#b37361;}</style>
  </defs>
  <sodipodi:namedview
     id="base"
     pagecolor="#ffffff"
     bordercolor="#666666"
     borderopacity="1.0"
     inkscape:pageopacity="0.0"
     inkscape:pageshadow="2"
     inkscape:zoom="0.033685378"
     inkscape:cx="15772.175"
     inkscape:cy="7527.3703"
     inkscape:document-units="px"
     inkscape:current-layer="layer1"
     inkscape:document-rotation="0"
     showgrid="false"
     inkscape:snap-bbox="true"
     inkscape:snap-global="false"
     inkscape:window-width="1440"
     inkscape:window-height="837"
     inkscape:window-x="-8"
     inkscape:window-y="-8"
     inkscape:window-maximized="1">
    <inkscape:grid
       type="xygrid"
       id="grid983" />
  </sodipodi:namedview>
  <metadata
     id="metadata978">
    <rdf:RDF>
      <cc:Work
         rdf:about="">
        <dc:format>image/svg+xml</dc:format>
        <dc:type
           rdf:resource="http://purl.org/dc/dcmitype/StillImage" />
        <dc:title></dc:title>
      </cc:Work>
    </rdf:RDF>
  </metadata>
  <g
     inkscape:label="Layer 1"
     inkscape:groupmode="layer"
     id="layer1">
    <g
       id="Layer_1-2"
       data-name="Layer 1"
       transform="matrix(2.4205163,0,0,2.5189663,9.2404254,197.35802)"
       style="stroke-width:1.01371">
      <path
         d="m 138.3,664.64 -8.72,28.67 -34.86,1.26 -2.33,-43.11 z"
         fill="#f77f89"
         fill-rule="evenodd"
         id="path1131"
         style="stroke-width:1.01287" />
      <path
         d="m 93.19,689.61 v 37.67 l 94.26,2.13 c 0,0 -2.68,-26.92 -50.88,-27.36 0.18,-11.83 0.2,-12.44 0.2,-12.44 z"
         fill="#6367fd"
         fill-rule="evenodd"
         id="path1133"
         style="stroke-width:1.01287" />
      <path
         d="m 50.2,670.06 0.65,28.23 36.4,1.27 9.46,-31.42 z"
         fill="#f77f89"
         fill-rule="evenodd"
         id="path1135"
         style="stroke-width:1.01287" />
      <path
         d="m 105.25,0 c 39.61,0 47.81,37.63 47.83,51.45 0,13.17 -2.57,15.18 -2.48,28.53 0.06,10.14 3,17.24 2.73,23 -1.56,30 -42.12,38.65 -53.7,38.82 -11.58,0.17 -62,-9.59 -62,-32.91 C 37.63,92.62 47.98,66.6 47.7,48.53 47.08,11 78.46,0 105.25,0 Z"
         fill-rule="evenodd"
         id="path1137"
         style="stroke-width:1.01287" />
      <path
         d="m 50,693.28 0.54,37.7 92.53,2.09 c 0,0 0,-27.49 -50.68,-28 v -11.79 z"
         fill="#6367fd"
         fill-rule="evenodd"
         id="path1139"
         style="stroke-width:1.01287" />
      <path
         d="m 40.92,410.5 0.24,263.73 66.12,-1.44 1,-12.21 42.64,5.75 27.06,-275 -14.61,-70.42 -96.57,-2.64 z"
         fill="#3b4161"
         fill-rule="evenodd"
         id="path1141"
         style="stroke-width:1.01287" />
      <path
         d="m 118.82,522.56 39.65,66.63 -7.53,76.44 -42.71,-5 z"
         fill="#15192c"
         fill-rule="evenodd"
         id="path1143"
         style="stroke-width:1.01287" />
      <path
         d="m 91,342 h 70.24 l 9.51,-103.77 -12.69,-79.52 -24,-23.11 L 110,124.86 66.55,131.5 Z"
         fill="#f7d167"
         fill-rule="evenodd"
         id="path1145"
         style="stroke-width:1.01287" />
      <path
         d="M 63.38,673.75 63.84,393.22"
         fill="none"
         stroke="#737999"
         stroke-linecap="round"
         stroke-linejoin="round"
         stroke-width="1.72332"
         id="path1147" />
      <path
         d="m 78.93,123.58 c -16.42,0.45 -65.45,18.25 -72.61,36.31 -5.44,13.7 -9.17,137.66 3.61,143.71 a 13.88,13.88 0 0 0 2.56,0.94 c -0.77,3.8 -8.13,91.79 -6.26,99.11 1.87,7.32 6.78,18.4 13.89,18 27.51,-1.65 78.05,-37.76 83.07,-43.65 0.77,-11.16 2.9,-53.08 2.9,-53.08 L 101.71,200.54 76.64,132 c 0,0 18.71,-8.87 2.29,-8.42 z"
         fill="#ffffff"
         fill-rule="evenodd"
         id="path1149"
         style="stroke-width:1.01287" />
      <path
         d="m 114.71,122.8 c 28.23,3.51 68.08,25.4 73.21,35.37 4.32,8.38 2.13,116.87 2.13,116.87 0,0 -16,21.95 -8.79,53.52 6.62,29.12 8.58,68.43 1.64,75.78 -11.44,-5.79 -26.15,-29 -28.8,-34.72 -2.65,-5.72 -3.34,-38.08 -5.38,-45 -2.04,-6.92 -11.17,-129.43 -11.17,-129.43 0,0 -4.26,-49.49 -22.84,-72.39 z"
         fill="#ffffff"
         fill-rule="evenodd"
         id="path1151"
         style="stroke-width:1.01287" />
      <path
         d="m 43.64,133.22 c 14.21,25.91 43,55.44 57.84,66.71"
         fill="none"
         stroke="#c9c9c9"
         stroke-linecap="round"
         stroke-linejoin="round"
         stroke-width="2.02743"
         id="path1153" />
      <path
         d="m 129,125.77 c 12.65,17.06 15.91,46.05 6,75.49"
         fill="none"
         stroke="#c9c9c9"
         stroke-linecap="round"
         stroke-linejoin="round"
         stroke-width="2.02743"
         id="path1155" />
      <path
         d="M 58,205.6 A 11.26,11.26 0 1 1 69.25,216.86 11.26,11.26 0 0 1 58,205.6 Z"
         fill="none"
         stroke="#353823"
         stroke-linecap="round"
         stroke-linejoin="round"
         stroke-width="3.45677"
         id="path1157" />
      <path
         d="m 63.48,205.6 a 5.75,5.75 0 1 1 5.75,5.75 5.75,5.75 0 0 1 -5.75,-5.75 z"
         fill="#353823"
         fill-rule="evenodd"
         id="path1159"
         style="stroke-width:1.01287" />
      <path
         d="M 66.21,194.75 C 58.61,166.84 58.12,128 77.74,121"
         fill="none"
         stroke="#353823"
         stroke-linecap="round"
         stroke-linejoin="round"
         stroke-width="3.45677"
         id="path1161" />
      <path
         d="m 112,116.25 c 11.19,4.74 21.85,26.6 24.35,45.32"
         fill="none"
         stroke="#353823"
         stroke-linecap="round"
         stroke-linejoin="round"
         stroke-width="3.45677"
         id="path1163" />
      <path
         d="m 124.27,196.73 c -3.58,-17.3 1.82,-33 12.06,-35.16 10.24,-2.16 21.45,10.18 25,27.48 3.55,17.3 -1.82,33 -12.06,35.15 -10.24,2.15 -21.42,-10.2 -25,-27.47 z"
         fill="none"
         stroke="#353823"
         stroke-linecap="round"
         stroke-linejoin="round"
         stroke-width="3.45677"
         id="path1165" />
      <path
         d="m 54.63,169.52 -4.32,84.11"
         fill="none"
         stroke="#c9c9c9"
         stroke-linecap="round"
         stroke-linejoin="round"
         stroke-width="2.02743"
         id="path1167" />
      <path
         d="M 42.47,172 53.7,187.66"
         fill="none"
         stroke="#c9c9c9"
         stroke-linecap="round"
         stroke-linejoin="round"
         stroke-width="2.02743"
         id="path1169" />
      <path
         d="M 80,246.94 36.82,257.27"
         fill="#606060"
         stroke="#c9c9c9"
         stroke-linecap="round"
         stroke-linejoin="round"
         stroke-width="2.02743"
         fill-rule="evenodd"
         id="path1171" />
      <path
         d="m 39,245.72 11,8.4"
         fill="none"
         stroke="#c9c9c9"
         stroke-linecap="round"
         stroke-linejoin="round"
         stroke-width="2.02743"
         id="path1173" />
      <path
         d="m 81.64,295.65 c -18.16,7.31 -61.3,16.05 -69.45,8.81 -10.9,-9.69 -14,-109.7 -8.53,-136.23 3.19,-15.44 19.3,-25.38 27.7,-29.38"
         fill="none"
         stroke="#c9c9c9"
         stroke-linecap="round"
         stroke-linejoin="round"
         stroke-width="2.02743"
         id="path1175" />
      <path
         d="M 68.66,299.93 C 63.48,293.36 61.5,260.6 64,250.77"
         fill="none"
         stroke="#c9c9c9"
         stroke-linecap="round"
         stroke-linejoin="round"
         stroke-width="2.02743"
         id="path1177" />
      <path
         d="m 69.23,257.17 a 2.64,2.64 0 1 1 2.64,2.63 2.63,2.63 0 0 1 -2.64,-2.63 z"
         fill="#c9c9c9"
         fill-rule="evenodd"
         id="path1179"
         style="stroke-width:1.01287" />
      <path
         d="m 64.42,337.47 a 49.9,49.9 0 0 1 -18,3.35 49.76,49.76 0 0 1 -13.49,-2 16.58,16.58 0 0 0 -0.53,3.88 v 20.89 a 16.5,16.5 0 1 0 33,0 v -20.91 a 16.4,16.4 0 0 0 -0.98,-5.21 z"
         fill="none"
         stroke="#c9c9c9"
         stroke-linecap="round"
         stroke-linejoin="round"
         stroke-width="2.02743"
         id="path1181" />
      <path
         d="m 128.42,190.52 h 86.23 c 5.23,0 8.35,4.09 7,9.13 l -33.29,122.46 a 13.07,13.07 0 0 1 -12,9.13 H 90.18 c -5.22,0 -8.35,-4.09 -7,-9.13 l 33.28,-122.46 a 13.06,13.06 0 0 1 11.96,-9.13 z"
         fill="#6367fd"
         fill-rule="evenodd"
         id="path1183"
         style="fill:#8d93ab;fill-opacity:1;stroke-width:1.01287" />
      <path
         d="m 152.22,184.22 h 48.94 a 3.23,3.23 0 0 1 3.29,4.36 l -2.38,8.32 a 6.34,6.34 0 0 1 -5.78,4.36 h -48.94 a 3.24,3.24 0 0 1 -3.29,-4.36 l 2.38,-8.32 a 6.36,6.36 0 0 1 5.78,-4.36 z"
         fill="#3b4161"
         fill-rule="evenodd"
         id="path1185"
         style="stroke-width:1.01287" />
      <path
         d="m 79.75,252.94 a 58.58,58.58 0 0 1 12.07,-5.27 c 6.07,-5 10.53,-24.75 12.14,-26 1.61,-1.25 7,-0.44 7.16,1.43 0.7,6.85 0.33,14.85 -5.74,22 17.66,-11.23 19,-16.21 23.86,-12.45 4.86,3.76 6.61,22.1 2.44,29.68 -11.48,20.92 -41.68,23.75 -50.92,23.89 -2.3,-9.95 -2.3,-21.98 -1.01,-33.28 z"
         fill="#f77f89"
         fill-rule="evenodd"
         id="path1187"
         style="stroke-width:1.01287" />
      <path
         d="m 41.15,653.65 68.28,-2.19"
         fill="none"
         stroke="#737999"
         stroke-linecap="round"
         stroke-linejoin="round"
         stroke-width="1.72332"
         id="path1189" />
      <path
         d="M 129.17,386.65 108.31,660.59"
         fill="none"
         stroke="#737999"
         stroke-linecap="round"
         stroke-linejoin="round"
         stroke-width="1.72332"
         id="path1191" />
      <path
         d="m 110,638.58 43.12,5.06"
         fill="none"
         stroke="#737999"
         stroke-linecap="round"
         stroke-linejoin="round"
         stroke-width="1.72332"
         id="path1193" />
      <path
         d="m 164.59,527.42 a 17.93,17.93 0 1 1 3.41,-35"
         fill="none"
         stroke="#737999"
         stroke-linecap="round"
         stroke-linejoin="round"
         stroke-width="1.72332"
         id="path1195" />
      <path
         d="m 117.65,539.69 a 19.79,19.79 0 0 1 1.09,-39.55 q 1,0 1.89,0.09"
         fill="none"
         stroke="#737999"
         stroke-linecap="round"
         stroke-linejoin="round"
         stroke-width="1.72332"
         id="path1197" />
      <path
         d="M 132.35,238.09 116.9,250.46"
         fill="none"
         stroke="#a7464f"
         stroke-linecap="round"
         stroke-linejoin="round"
         stroke-width="3.45677"
         id="path1199" />
      <path
         d="m 134,250.89 -19.62,15.6"
         fill="none"
         stroke="#a7464f"
         stroke-linecap="round"
         stroke-linejoin="round"
         stroke-width="3.45677"
         id="path1201" />
      <path
         d="m 220.16,250.3 c -0.24,-4.12 1,-13.27 4.66,-22 1.34,-3.16 1.42,-8.36 -3.29,-8.36 -5.36,0 -12.53,10.76 -9,23.57 3.53,12.81 7.98,12.61 7.63,6.79 z"
         fill="#f77f89"
         fill-rule="evenodd"
         id="path1203"
         style="stroke-width:1.01287" />
      <path
         d="m 203.56,226.09 c 4.26,0 17.21,25.62 17.12,28.73 -0.09,3.11 -1.44,7.84 -3.45,7.6 -2.01,-0.24 -18.83,-21.65 -18.83,-28.92 0,-4.21 2.05,-7.41 5.16,-7.41 z"
         fill="#f77f89"
         fill-rule="evenodd"
         id="path1205"
         style="stroke-width:1.01287" />
      <path
         d="m 198,240.81 c 5.31,0 19.31,20.42 19.41,22.76 0.1,2.34 -2.73,4.49 -5.07,4.59 -2.34,0.1 -19.07,-13.62 -19.07,-20 -0.03,-3.9 1.73,-7.35 4.73,-7.35 z"
         fill="#f77f89"
         fill-rule="evenodd"
         id="path1207"
         style="stroke-width:1.01287" />
      <path
         d="m 202.9,279 c 2.3,-0.11 8.7,-5.83 8.7,-10.33 0,-1.77 -4.47,-6.35 -6.71,-6.21 -2.24,0.14 -6.81,8.75 -6.72,10.94 0.09,2.19 1.72,5.71 4.73,5.6 z"
         fill="#f77f89"
         fill-rule="evenodd"
         id="path1209"
         style="stroke-width:1.01287" />
      <path
         d="m 211.6,235.56 c 4.59,7.64 9.13,17.42 9.08,19.26"
         fill="none"
         stroke="#a7464f"
         stroke-linecap="round"
         stroke-linejoin="round"
         stroke-width="3.45677"
         id="path1211" />
      <path
         d="m 201.21,242.31 c 6.32,4.76 16.09,19.31 16.17,21.26"
         fill="none"
         stroke="#a94b53"
         stroke-linecap="round"
         stroke-linejoin="round"
         stroke-width="3.45677"
         id="path1213" />
      <path
         d="M 63.06,58.49 C 63.06,35.6 81.37,17 104,17 c 22.63,0 40.9,18.56 40.9,41.45 0,22.89 -18.35,41.49 -40.9,41.49 -22.55,0 -40.94,-18.55 -40.94,-41.45 z"
         fill="#f77f89"
         fill-rule="evenodd"
         id="path1215"
         style="stroke-width:1.01287" />
      <path
         d="m 97.94,61.48 c 0.44,-2.64 2,-4.59 3.56,-4.33 1.56,0.26 2.42,2.6 2,5.24 -0.42,2.64 -2,4.59 -3.56,4.34 -1.56,-0.25 -2.43,-2.6 -2,-5.25 z"
         fill="#b5545c"
         fill-rule="evenodd"
         id="path1217"
         style="stroke-width:1.01287" />
      <path
         d="m 128.75,63.46 c 0.41,-2.47 1.89,-4.29 3.32,-4.05 1.43,0.24 2.26,2.43 1.86,4.9 -0.4,2.47 -1.9,4.28 -3.33,4 -1.43,-0.28 -2.26,-2.38 -1.85,-4.85 z"
         fill="#b5545c"
         fill-rule="evenodd"
         id="path1219"
         style="stroke-width:1.01287" />
      <path
         d="m 69.31,76.74 c 2.43,6.76 8.54,41.89 7,54.65 6.4,9.7 34.92,7 43.42,-1.21 C 115.5,118.37 115.34,109.9 116.89,99.94 118.36,90.62 66.88,70 69.31,76.74 Z"
         fill="#f77f89"
         fill-rule="evenodd"
         id="path1221"
         style="stroke-width:1.01287" />
      <path
         d="m 120.19,16 c 0.35,9.85 -8.64,19.26 -33.08,23.93 2.68,6.91 2.9,17.3 -10.45,19.17 C 61.09,61.26 59.82,41.37 59.82,41.37 L 83.14,13.82 c 0,0 36.71,-7.69 37.05,2.18 z"
         fill-rule="evenodd"
         id="path1223"
         style="stroke-width:1.01287" />
      <path
         d="m 112.85,9.07 c -1,8.75 9.07,30 32.39,30.58 16.58,0 -31.42,-39.34 -32.39,-30.58 z"
         fill-rule="evenodd"
         id="path1225"
         style="stroke-width:1.01287" />
      <path
         d="m 85.8,98.47 c -2.24,-2.83 1,-15.73 4.53,-21.64 4.26,-2.51 19.37,-0.42 27.16,-7.12 2.29,-2 3.52,-0.52 5.3,1.67 3.13,3.84 12.54,5.83 16.06,8 0.52,5.6 -4.62,18.42 -6.84,21.29 -3.48,4.55 -35.29,4.96 -46.21,-2.2 z"
         fill="#ffffff"
         fill-rule="evenodd"
         id="path1227"
         style="stroke-width:1.01287" />
      <path
         d="M 92.39,78 C 90.33,74.56 81.33,59.17 78.46,55.27"
         fill="none"
         stroke="#ffffff"
         stroke-linecap="round"
         stroke-linejoin="round"
         stroke-width="3.45677"
         id="path1229" />
      <path
         d="M 87.57,97.65 C 81.48,97.65 67,78.6 65.35,72.21"
         fill="none"
         stroke="#ffffff"
         stroke-linecap="round"
         stroke-linejoin="round"
         stroke-width="3.45677"
         id="path1231" />
      <path
         d="M 56.06,61.89 A 13.33,13.33 0 1 1 69.39,75.22 13.33,13.33 0 0 1 56.06,61.89 Z"
         fill="#f77f89"
         fill-rule="evenodd"
         id="path1233"
         style="stroke-width:1.01287" />
      <path
         d="M 140.29,724.16 50.43,723.54"
         fill="none"
         stroke="#4c4fd9"
         stroke-linecap="round"
         stroke-linejoin="round"
         stroke-width="1.72332"
         id="path1235" />
      <path
         d="m 142.21,728.57 c -2.47,-7.81 -12.13,-23.11 -49.82,-23.48 v -3.79"
         fill="none"
         stroke="#4c4fd9"
         stroke-linecap="round"
         stroke-linejoin="round"
         stroke-width="1.72332"
         id="path1237" />
      <path
         d="m 50.43,713.18 a 17,17 0 0 1 17,17 c 0,0.45 0,0.89 0,1.33"
         fill="none"
         stroke="#4c4fd9"
         stroke-linecap="round"
         stroke-linejoin="round"
         stroke-width="1.72332"
         id="path1239" />
      <path
         d="m 102.35,713.72 4.41,-7.64"
         fill="none"
         stroke="#4c4fd9"
         stroke-linecap="round"
         stroke-linejoin="round"
         stroke-width="1.72332"
         id="path1241" />
      <path
         d="m 112.73,715.52 3.76,-7.5"
         fill="none"
         stroke="#4c4fd9"
         stroke-linecap="round"
         stroke-linejoin="round"
         stroke-width="1.72332"
         id="path1243" />
      <path
         d="m 122.55,717.49 3.27,-6.07"
         fill="none"
         stroke="#4c4fd9"
         stroke-linecap="round"
         stroke-linejoin="round"
         stroke-width="1.72332"
         id="path1245" />
      <path
         d="m 104.69,351.64 46.7,-1.46"
         fill="none"
         stroke="#737999"
         stroke-linecap="round"
         stroke-linejoin="round"
         stroke-width="1.72332"
         id="path1247" />
      <path
         d="m 50.07,698.13 42.32,-0.69"
         fill="none"
         stroke="#4c4fd9"
         stroke-linecap="round"
         stroke-linejoin="round"
         stroke-width="1.72332"
         id="path1249" />
      <path
         d="m 93.19,694 43.52,-0.35"
         fill="none"
         stroke="#4c4fd9"
         stroke-linecap="round"
         stroke-linejoin="round"
         stroke-width="1.72332"
         id="path1251" />
      <path
         d="m 185.19,722.82 -46.42,-1"
         fill="none"
         stroke="#4c4fd9"
         stroke-linecap="round"
         stroke-linejoin="round"
         stroke-width="1.72332"
         id="path1253" />
      <path
         d="m 150.67,703.06 -4,7.11"
         fill="none"
         stroke="#4c4fd9"
         stroke-linecap="round"
         stroke-linejoin="round"
         stroke-width="1.72332"
         id="path1255" />
      <path
         d="m 157.34,704.65 -4,7.12"
         fill="none"
         stroke="#4c4fd9"
         stroke-linecap="round"
         stroke-linejoin="round"
         stroke-width="1.72332"
         id="path1257" />
      <path
         d="m 164.46,706.61 -4,7.12"
         fill="none"
         stroke="#4c4fd9"
         stroke-linecap="round"
         stroke-linejoin="round"
         stroke-width="1.72332"
         id="path1259" />
      <path
         d="m 32.49,419.2 c -15,6.28 -26.26,-4.91 -26.35,-16 -0.09,-11.09 4.3,-77.26 4.9,-83.86"
         fill="none"
         stroke="#c9c9c9"
         stroke-linecap="round"
         stroke-linejoin="round"
         stroke-width="2.02743"
         id="path1261" />
      <path
         d="m 189.82,174 c 0.78,-22.64 -23.06,-33 -32.87,-37.44"
         fill="none"
         stroke="#c9c9c9"
         stroke-linecap="round"
         stroke-linejoin="round"
         stroke-width="2.02743"
         id="path1263" />
      <path
         d="m 185.16,400 c 1.87,-12.07 2,-44.73 -1.16,-57.19"
         fill="none"
         stroke="#c9c9c9"
         stroke-linecap="round"
         stroke-linejoin="round"
         stroke-width="2.02743"
         id="path1265" />
      <text
         xml:space="preserve"
         id="text4956"
         style="font-style:normal;font-weight:normal;font-size:9.32306px;line-height:1.25;font-family:sans-serif;white-space:pre;shape-inside:url(#rect4958);fill:#000000;fill-opacity:1;stroke:none;" />
    </g>
    <g
       id="Layer_1-2-8"
       data-name="Layer 1"
       transform="matrix(2.4218404,0,0,2.6458344,7166.663,131.65551)">
      <path
         d="m -716.0724,651.88293 -5.76,29.3 32.9,15.36 13.83,-30.34 z"
         fill-rule="evenodd"
         id="path1503" />
      <path
         d="m -702.6424,728.68293 17,-39.26 c 0,0 -19.22,-8.81 -34.77,-15.2 -24.35,3.63 -61.2,1.54 -73.4,-1 -3.33,8.26 -5.18,13.89 -5.18,13.89 z"
         fill-rule="evenodd"
         id="path1505" />
      <path
         d="m -477.1524,655.07293 14.16,13.1 30.6,-22.5 -10.8,-14.28 z"
         fill-rule="evenodd"
         id="path1507" />
      <path
         d="m -435.0924,642.07293 25.73,33.74 -55.21,43.33 h -54.56 l 0.12,-14.32 c 0,0 38.68,-7 38.56,-6.89 8,-9.53 14.5,-32.52 14.5,-32.52 z"
         fill-rule="evenodd"
         id="path1509" />
      <path
         d="m -530.5424,343.02293 c 0,0 17.94,132.48 24.3,146.75 6.36,14.27 67.92,142.53 67.92,142.53 l -44.49,31.91 c 0,0 -99.05,-149.33 -103.54,-157.33 -2.9,-5.12 -10.63,-35.61 -10.63,-35.61 l -76.28,207.71 -50.55,-23.1 53.07,-307.52 z"
         fill="#aadaf1"
         fill-rule="evenodd"
         id="path1511" />
      <path
         d="m -584.2724,345.08293 -39.72,1.51 0.29,9.58 z m -38.72,36.29 4.55,148.32 21.45,-58.25 z"
         fill="#73a9c3"
         fill-rule="evenodd"
         id="path1513" />
      <path
         d="m -596.9424,471.44293 -29.79,-103.84"
         fill="none"
         stroke="#0097f7"
         stroke-linecap="round"
         stroke-linejoin="round"
         stroke-width="1.7"
         id="path1515" />
      <path
         d="m -482.8724,593.51293 -41.46,-76.7 c 8.1,-8.19 11.49,-16.94 -7.08,-6.56 -13.77,7.69 -16.07,5.08 -4,-8.23 16.25,-17.88 13.42,-20.33 -2.56,-17.75"
         fill="none"
         stroke="#0097f7"
         stroke-linecap="round"
         stroke-linejoin="round"
         stroke-width="1.7"
         id="path1517" />
      <path
         d="m -534.6324,477.88293 c 0,0 -13.36,-93.68 -17.22,-105.21"
         fill="none"
         stroke="#0097f7"
         stroke-linecap="round"
         stroke-linejoin="round"
         stroke-width="1.7"
         id="path1519" />
      <path
         d="m -672.7324,587.32293 c 1.47,-6.29 9.43,-62.3 14.38,-63.68 23.52,-6.54 27.77,-15.69 5.3,-22.1 -22,-6.29 -21.92,-8.18 -2.08,-14.22 20.3,-6.19 16.3,-9.47 3.25,-21.12 -4.42,-3.95 15.86,-53.31 17,-58.12"
         fill="none"
         stroke="#0097f7"
         stroke-linecap="round"
         stroke-linejoin="round"
         stroke-width="1.7"
         id="path1521" />
      <path
         d="m -495.8824,247.88293 c -0.13,-7.71 1.53,-21.45 -1.91,-29.71 -3.44,-8.26 -26.15,-4.7 -26.15,-4.7 0,0 28.18,42.08 28.06,34.41 z"
         fill="#f77f89"
         fill-rule="evenodd"
         id="path1523" />
      <path
         d="m -589.5224,115.03293 c 51.62,0 93.74,26.15 94.15,65.78 0.25,24.87 4.83,42.76 4.83,42.76 l -45.77,11.38 c 0,0 15.9,109.17 10.32,113.76 -16.6,13.68 -133.06,18.26 -147.51,3.37 -1.27,-18.42 9.93,-67.5 9.93,-67.5 0,0 -35.54,-83.78 -16.28,-123.29 18.25,-37.45 66.23,-44.18 87.5,-44.91 1.17,-0.04 1.83,-1.35 2.83,-1.35 z"
         fill="#0097f7"
         fill-rule="evenodd"
         id="path1525" />
      <path
         d="m -558.9324,46.882932 c 0.3,-17.69 -17.77,-41.9999999 -43.79,-41.9999999 -20.39,0 -41.22,9.6999999 -41.75,25.4799999 -1.06,-6.52 -2.07,-10.55 -1.33,-14.15 -4.4,-0.22 -13.25,11.13 -13.25,26.29 0,5.86 4.57,28 17.57,27.73 13,-0.27 62.61,17.49 62.61,17.49 0,0 3.26,4.77 7.66,4.41 4.4,-0.36 12.73,-8.61 12.8,-13.16 0.07,-4.55 -4.05,-12.73 -4,-15.26 0.05,-2.53 3.17,0.83 3.48,-16.83 z"
         fill="#6a3416"
         fill-rule="evenodd"
         id="path1527" />
      <path
         d="m -621.1524,166.52293 -9.17,33.36"
         fill="none"
         stroke="#000000"
         stroke-linecap="round"
         stroke-linejoin="round"
         stroke-width="3.41"
         id="path1529" />
      <path
         d="m -647.0724,69.592932 a 38.7,38.7 0 1 1 38.69,38.689998 38.69,38.69 0 0 1 -38.69,-38.689998 z"
         fill="#f77f89"
         fill-rule="evenodd"
         id="path1531" />
      <path
         d="m -648.9324,54.882932 c 0,0 5.2,-1 12.85,-12.32 9.54,1.8 25.24,1.72 38.62,-2.32 0.17,8.07 6.09,21.28 14.24,19.82 8.15,-1.46 11.49,-21.1 11.49,-21.1 l -19.21,-20.08 -29.05,0.19 -20.45,14.41 z"
         fill="#6a3416"
         fill-rule="evenodd"
         id="path1533" />
      <path
         d="m -637.3824,64.992932 c -0.36,-3.09 0.61,-5.73 2.16,-5.91 1.55,-0.18 3.11,2.17 3.47,5.25 0.36,3.08 -0.61,5.73 -2.17,5.91 -1.56,0.18 -3.07,-2.17 -3.46,-5.25 z"
         fill="#90415b"
         fill-rule="evenodd"
         id="path1535" />
      <path
         d="m -569.3124,77.642932 c -1,6.15 -3,35.399998 0.17,41.619998 -7.07,7.12 -27.8,10.19 -38.66,7.1 0.85,-8.44 -2.65,-16.69 -4.52,-20.06 -1.87,-3.37 43.98,-34.819998 43.01,-28.659998 z"
         fill="#f77f89"
         fill-rule="evenodd"
         id="path1537" />
      <path
         d="m -611.5424,60.242932 c -0.36,-3.08 0.61,-5.72 2.16,-5.91 1.55,-0.19 3.11,2.17 3.46,5.26 0.35,3.09 -0.6,5.73 -2.16,5.91 -1.56,0.18 -3.1,-2.17 -3.46,-5.26 z"
         fill="#90415b"
         fill-rule="evenodd"
         id="path1539" />
      <path
         d="m -624.4224,66.022932 c 0.31,3.64 -2.61,17.4 -3.23,19.53 -0.62,2.13 2.71,2.92 2.71,2.92"
         fill="none"
         stroke="#90415b"
         stroke-linecap="round"
         stroke-linejoin="round"
         stroke-width="1.7"
         id="path1541" />
      <path
         d="m -645.1324,81.722932 c 0.2,3.87 9.34,23.829998 14.73,26.899998 5.39,3.07 46,2.67 55.33,-17.429998 -7.66,-1.19 -12.85,-7.69 -18.91,-21.6 -13.54,2 -28.89,0 -31.36,0.13 -2.71,0.16 -9.23,9.16 -19.79,12 z"
         fill="#ffffff"
         fill-rule="evenodd"
         id="path1543" />
      <path
         d="m -564.0624,155.44293 c 21.24,-0.41 63.36,-3 67.59,15 4.23,18 8.25,48.87 5.93,53.1 -2.32,4.23 -45.57,9.59 -45.57,9.59 -3.42,-8.66 -22.3,-57.49 -27.95,-77.69 z"
         fill="#0097f7"
         fill-rule="evenodd"
         id="path1545" />
      <path
         d="m -518.7324,274.77293 c -11.7,1.9 -80.75,-46.21 -89.31,-45.27 -8.56,0.94 -30.53,0.1 -30.53,0.1 0,0 -12.5,-47.91 14.17,-49.68 1.65,-0.11 11.42,8.58 11.42,8.58 0,0 2.71,-0.86 4.6,0.69 3.45,2.82 14.67,15.57 20.28,17.59 9.44,3.41 86.05,17.9 89.72,24 3.67,6.1 7.72,39.44 -20.35,43.99 z"
         fill="#f77f89"
         fill-rule="evenodd"
         id="path1547" />
      <path
         d="m -702.1924,200.88293 h 53.55 c 6.18,0 13.2,4.58 15.69,10.24 l 37.69,85.61 c 2.49,5.65 -0.5,10.23 -6.68,10.23 h -53.54 c -6.18,0 -13.21,-4.58 -15.7,-10.23 l -37.68,-85.62 c -2.49,-5.66 0.5,-10.23 6.67,-10.23 z"
         fill="#f7d167"
         fill-rule="evenodd"
         id="path1549" />
      <path
         d="m -703.5024,270.44293 c -2.55,-6.58 -4.37,-15.67 -0.79,-21.49 3.58,-5.82 17.36,-23.74 23.07,-24.07 5.71,-0.33 20.37,15.56 21.94,20.71 1.57,5.15 1,16.34 -1.46,21.16 -2.46,4.82 -12.33,14.18 -17.3,14.37 -4.97,0.19 -23.95,-6.66 -25.46,-10.68 z"
         fill="#f77f89"
         fill-rule="evenodd"
         id="path1551" />
      <path
         d="m -704.9124,257.29293 c -0.69,-10.62 -5.32,-22.12 -8.46,-29.92 -2.1,-5.19 -0.55,-9.64 3,-10.65 3.55,-1.01 14.56,13.51 14.88,24.74 0.32,11.23 -8.72,26.42 -9.42,15.83 z"
         fill="#f77f89"
         fill-rule="evenodd"
         id="path1553" />
      <path
         d="m -705.5724,251.88293 a 60.11,60.11 0 0 1 10.07,-15.41"
         fill="none"
         stroke="#81666f"
         stroke-linecap="round"
         stroke-linejoin="round"
         stroke-width="1.7"
         id="path1555" />
      <path
         d="m -691.3724,253.60293 c 0,-5.71 11.64,-22.36 16,-24.4"
         fill="none"
         stroke="#905f6f"
         stroke-linecap="round"
         stroke-linejoin="round"
         stroke-width="1.7"
         id="path1557" />
      <path
         d="m -679.9424,260.32293 c 0.13,-2.77 9.19,-17.86 14.38,-20.86"
         fill="none"
         stroke="#8b5d6c"
         stroke-linecap="round"
         stroke-linejoin="round"
         stroke-width="1.7"
         id="path1559" />
      <path
         d="m -658.6624,171.74293 c -1,5.86 -1.94,18.39 0.48,29.11"
         fill="none"
         stroke="#aadaf1"
         stroke-linecap="round"
         stroke-linejoin="round"
         stroke-width="1.7"
         id="path1561" />
      <path
         d="m -591.3024,196.08293 33.75,0.68"
         fill="none"
         stroke="#aadaf1"
         stroke-linecap="round"
         stroke-linejoin="round"
         stroke-width="1.7"
         id="path1563" />
      <path
         d="m -610.3124,118.10293 c -0.49,4.94 -6.35,36.88 13.37,36.88 12.69,0 32.39,-29.52 29.27,-38.32"
         fill="#f77f89"
         stroke="#aadaf1"
         stroke-linecap="round"
         stroke-linejoin="round"
         stroke-width="1.7"
         fill-rule="evenodd"
         id="path1565" />
      <path
         d="m -588.1024,65.232932 a 14.74,14.74 0 1 1 14.74,14.73 14.74,14.74 0 0 1 -14.74,-14.73 z"
         fill="#f77f89"
         fill-rule="evenodd"
         id="path1567" />
      <path
         d="m -593.8324,69.882932 c 0,0 9.31,-17 19.17,-19.33"
         fill="none"
         stroke="#ffffff"
         stroke-linecap="round"
         stroke-linejoin="round"
         stroke-width="1.7"
         id="path1569" />
      <path
         d="m -575.1324,91.312932 7.22,-12.43"
         fill="none"
         stroke="#ffffff"
         stroke-linecap="round"
         stroke-linejoin="round"
         stroke-width="1.7"
         id="path1571" />
      <path
         d="m -541.9924,218.00293 c -5.65,-14.81 -13.76,-36.55 -18.88,-52.13"
         fill="none"
         stroke="#aadaf1"
         stroke-linecap="round"
         stroke-linejoin="round"
         stroke-width="1.7"
         id="path1573" />
      <path
         d="m -643.9924,85.812932 c 2.64,7.21 9.31,20.369998 13.6,22.809998 1.71,1 7,1.6 13.74,1.35"
         fill="none"
         stroke="#c9c9c9"
         stroke-linecap="round"
         stroke-linejoin="round"
         stroke-width="3.41"
         id="path1575" />
      <path
         d="m -699.4724,721.33293 -96.87,-41.64"
         fill="none"
         stroke="#7c7c7c"
         stroke-linecap="round"
         stroke-linejoin="round"
         stroke-width="1.7"
         id="path1577" />
      <path
         d="m -519.0824,712.97293 51.75,-1.79 53.07,-41.8"
         fill="none"
         stroke="#7c7c7c"
         stroke-linecap="round"
         stroke-linejoin="round"
         stroke-width="1.7"
         id="path1579" />
    </g>
    <g
       id="Layer_2-2"
       data-name="Layer 2"
       transform="matrix(8.021443,0,0,7.3549485,4072.0645,520.55502)">
      <path
         d="m 83.275717,35.93509 c 19.000003,3.61 15.61,117 -20.86,110.14 -34.44,-6.51 -2.32,-114.51 20.86,-110.14 z"
         id="path3142" />
      <path
         class="cls-1"
         d="m -0.14428267,49.99509 c 15.11999967,-8.55 78.40999967,71.09 49.45999967,87.46 -27.35,15.47 -67.87,-77.05 -49.45999967,-87.46 z"
         id="path3144" />
      <path
         class="cls-2"
         d="m 76.905717,200.88509 h -38.18 a 6.25,6.25 0 0 1 -6.21,-5.56 l -4.82,-43.29 a 6.25,6.25 0 0 1 6.21,-6.94 h 47.62 a 6.24,6.24 0 0 1 6.21,6.91 l -4.61,43.29 a 6.26,6.26 0 0 1 -6.22,5.59 z"
         id="path3146" />
      <path
         class="cls-3"
         d="M 98.79,0.23 C 113.26,4.44 102.17,92 74.46,83.91 48.3,76.3 81.18,-4.89 98.79,0.23 Z"
         id="path3148" />
      <path
         class="cls-1"
         d="m 117.86572,61.43509 c 10,8.63 -30.680003,74.56 -49.900003,58 -18.15,-15.57 37.690003,-68.5 49.900003,-58 z"
         id="path3150" />
      <path
         class="cls-4"
         d="m 57.915717,0.90508984 c 21.66,0 41.49,138.29000016 0,138.29000016 -39.18,0 -26.37,-138.29000016 0,-138.29000016 z"
         id="path3152" />
      <rect
         class="cls-5"
         x="15.675716"
         y="135.68509"
         width="84.300003"
         height="15.48"
         rx="4.0500002"
         ry="4.0500002"
         id="rect3154" />
    </g>
    <g
       id="Middle_ground"
       data-name="Middle ground"
       transform="matrix(6.2343795,0,0,7.3812096,4616.7295,542.99985)">
      <path
         class="cls-1"
         d="m 56.42,133.75 v -1 l -2.4,-3 -5.5,-6.75 -5.9,-7.14 c 0,0 -5.68,-3.93 -7.14,-4.61 -5.32,-2.46 -10.56,-4.34 -16.82,-4.34 -3.85,0 -18.24,0.58 -18.27,3 0,3.59 20.15,17.18 34.93,23.78 6.44,0.06 21.1,0.06 21.1,0.06 z"
         id="path3377" />
      <path
         class="cls-2"
         d="M 53.37,133.75 C 32.86,118 -9,31.9 1.73,0 24.59,11.65 49.67,51.82 61.5,85.74 a 60.79,60.79 0 0 1 1.5,6.71 l 4.8,22 1.2,19.3 z"
         id="path3379" />
      <path
         class="cls-3"
         d="M 67.37,133.75 C 60.45,128.13 58.24,111.49 58.18,105.28 58.07,93.69 59.85,85.15 69.76,72.4 79.67,59.65 77,38.49 90.2,24.23 103.4,9.97 112.08,6 127.7,6 143.32,6 148.27,31.32 148.23,37.69 148.05,63.37 131.86,67 122,79.27 c -7.17,8.9 -7.73,16.18 -9.9,20.34 C 100.44,122 91,130.46 84,133.75"
         id="path3381" />
      <path
         class="cls-4"
         d="M 71.15,131.89 C 71.35,88.06 117.54,22.23 127.41,12.36"
         id="path3383" />
      <path
         class="cls-4"
         d="M 73.68,112 C 68.57,106.43 63.92,90.64 64.62,86.54"
         id="path3385" />
      <path
         class="cls-4"
         d="M 60.59,130 C 53.35,117.14 19,54.58 6.15,8.49"
         id="path3387" />
      <path
         class="cls-5"
         d="m 84,133.75 h 21.5 l -18,67.05 H 39.37 L 21.66,133.75 H 84"
         id="path3389" />
      <path
         class="cls-4"
         d="m 7.38,111.28 c 10.49,0.72 23.69,1.2 33.05,7.55"
         id="path3391" />
    </g>
  </g>
</svg>
